# xmcd
#
# Track frame offsets:
#	150
#	12856
#	25332
#	38048
#	52620
#	67503
#	79526
#	95743
#	114398
#	129529
#	147320
#	165218
#
# Disc length: 2430 seconds
#
# Revision: 1
# Processed by: cddbd v1.5.1PL0 Copyright (c) Steve Scherf et al.
# Submitted via: audiograbber 1.80
#
DISCID=84097c0c
DTITLE=Ove Støylen - It's About Time
DYEAR=1900
DGENRE=
TTITLE0=Countryfied
TTITLE1=It's About Time
TTITLE2=A Little Bit Of Happiness
TTITLE3=Just An Old Couple
TTITLE4=From Duke To Alan
TTITLE5=Pork On The Run
TTITLE6=Your Roses
TTITLE7=Tell Her
TTITLE8=Pickup Jasmine
TTITLE9=Two Broken Cigarettes
TTITLE10=The Hitchhiker
TTITLE11=Hey You All
EXTD=
EXTT0=
EXTT1=
EXTT2=
EXTT3=
EXTT4=
EXTT5=
EXTT6=
EXTT7=
EXTT8=
EXTT9=
EXTT10=
EXTT11=
PLAYORDER=
